<svg width="193" height="59" viewBox="0 0 193 59" fill="none" xmlns="http://www.w3.org/2000/svg">
<g clip-path="url(#clip0_205_389)">
<path d="M88.3925 45.8394V30.8278H94.1362V44.9727C94.1362 50.1726 96.7385 53.2058 101.076 53.2058C105.791 53.2058 109.261 49.6867 109.261 44.9727V30.8278H114.952V57.9043H109.685V54.1251C107.516 56.8334 104.155 58.4583 100.143 58.4583C93.1727 58.4583 88.3925 53.5308 88.3925 45.8394Z" fill="white"/>
<path d="M109.493 30.8278H114.76V34.6194C116.928 31.9112 120.287 30.2862 124.298 30.2862C131.291 30.2862 136.071 35.2137 136.071 42.9021V57.9043H130.309V43.7811C130.309 38.5843 127.706 35.5511 123.369 35.5511C118.654 35.5511 115.184 39.0703 115.184 43.7811V57.9167H109.493V30.8278Z" fill="white"/>
<path d="M140.362 44.9201C140.362 36.9037 146.161 30.8402 153.912 30.8402C155.645 30.8199 157.362 31.1669 158.95 31.8584C160.538 32.5498 161.961 33.57 163.126 34.8516V20.0103H168.82V58.4584H163.553V54.5058C161.279 57.3193 157.918 59 153.906 59C146.161 58.9938 140.362 52.9892 140.362 44.9201ZM163.237 44.9201C163.237 39.8843 159.551 36.0401 154.727 36.0401C149.904 36.0401 146.161 39.8843 146.161 44.9201C146.161 49.956 149.904 53.8001 154.727 53.8001C159.551 53.8001 163.237 49.956 163.237 44.9201Z" fill="white"/>
<path d="M175.32 20.0103H181.023V58.4584H175.332L175.32 20.0103Z" fill="white"/>
<path d="M187.309 31.3819H193V58.4584H187.309V31.3819ZM193 25.4453C193 26.0081 192.833 26.5581 192.52 27.026C192.207 27.4938 191.762 27.8584 191.242 28.0736C190.721 28.2888 190.149 28.3449 189.596 28.2349C189.044 28.1249 188.537 27.8537 188.139 27.4556C187.741 27.0575 187.47 26.5503 187.36 25.9984C187.251 25.4464 187.307 24.8744 187.523 24.3547C187.739 23.835 188.105 23.3909 188.573 23.0788C189.042 22.7666 189.593 22.6003 190.156 22.6009C190.53 22.6009 190.9 22.6745 191.245 22.8175C191.59 22.9605 191.904 23.17 192.168 23.4342C192.432 23.6984 192.642 24.012 192.784 24.3571C192.927 24.7021 193 25.072 193 25.4453Z" fill="white"/>
<path d="M65.9319 37.3277H60.8605V32.3754H65.9319V29.531C65.9319 23.7925 70.3311 19.9669 76.3846 19.9669C82.2306 19.9669 86.5771 23.2261 86.5771 28.8098H81.4561V28.5003C81.4034 26.278 79.2874 24.8294 76.3846 24.8294C73.3826 24.8294 71.1583 26.3306 71.1583 29.3793C71.1583 30.3636 71.2605 31.2364 71.3132 32.3785H82.6457V37.3308H71.3534V58.2169H65.9319V37.3277Z" fill="white"/>
<path d="M0 11.8916V0H50.9065V11.3531C50.9032 13.8719 49.9001 16.2866 48.117 18.0674C46.334 19.8482 43.9168 20.8497 41.3956 20.8521H9.48611C7.05979 20.8475 4.72676 19.9175 2.96368 18.2521C1.20061 16.5867 0.140538 14.3116 0 11.8916Z" fill="white"/>
<path d="M40.3331 26.2749H10.5209C8.73157 26.274 6.97315 25.8089 5.41781 24.925C3.86246 24.0412 2.56352 22.7689 1.64819 21.2328V46.1953C1.64984 49.5903 3.00085 52.8456 5.40423 55.2456C7.80761 57.6456 11.0666 58.9938 14.4647 58.9938H36.4296C39.8296 58.9938 43.0902 57.6444 45.4944 55.2425C47.8985 52.8406 49.2492 49.5829 49.2492 46.186V21.1555C48.3405 22.7129 47.0391 24.0051 45.4746 24.9034C43.9102 25.8016 42.1375 26.2745 40.3331 26.2749ZM35.3391 41.5773L27.5941 49.3153C27.3138 49.5955 26.9811 49.8177 26.6148 49.9694C26.2486 50.121 25.856 50.1991 25.4595 50.1991C25.0631 50.1991 24.6705 50.121 24.3042 49.9694C23.938 49.8177 23.6052 49.5955 23.325 49.3153L15.5799 41.5773C15.2612 41.2575 15.0183 40.8704 14.869 40.4445C14.7197 40.0186 14.6677 39.5646 14.7171 39.116C14.7664 38.6674 14.9157 38.2355 15.154 37.8522C15.3923 37.4688 15.7136 37.1436 16.0942 36.9006C18.891 35.1061 22.145 34.1522 25.4688 34.1522C28.7927 34.1522 32.0466 35.1061 34.8434 36.9006C35.2222 37.1455 35.5415 37.472 35.7777 37.8562C36.0139 38.2403 36.1612 38.6724 36.2087 39.1207C36.2562 39.5691 36.2028 40.0224 36.0523 40.4474C35.9019 40.8725 35.6582 41.2585 35.3391 41.5773Z" fill="white"/>
</g>
<defs>
<clipPath id="clip0_205_389">
<rect width="193" height="59" fill="white"/>
</clipPath>
</defs>
</svg>
